<svg width="463" height="165" viewBox="0 0 463 165" fill="none" xmlns="http://www.w3.org/2000/svg">
<path d="M63.4802 63.4321C63.1495 64.0113 62.8295 64.5756 62.5204 65.125C62.233 65.6446 61.9497 66.19 61.6703 66.7611C64.4182 67.3048 66.7008 68.1587 68.5182 69.323C70.3315 70.4616 71.7967 71.734 72.9139 73.1401C74.0271 74.5206 74.8424 75.9346 75.3598 77.3822C75.8989 78.8001 76.2534 80.0493 76.4231 81.1298C76.6616 82.6476 76.6327 84.1416 76.3365 85.6116C76.0619 87.0519 75.5891 88.4047 74.918 89.67C74.2726 90.9313 73.4635 92.0734 72.4907 93.0961C71.5138 94.0932 70.4551 94.9054 69.3147 95.5327C72.1335 97.1987 74.3456 99.1973 75.9508 101.528C77.5818 103.856 78.5994 106.305 79.0036 108.878C79.3431 111.039 79.2143 113.155 78.617 115.226C78.0455 117.293 77.114 119.166 75.8225 120.845C74.531 122.524 72.9101 123.952 70.9596 125.128C69.0349 126.301 66.902 127.071 64.561 127.438C62.5286 127.758 60.5981 127.718 58.7693 127.32C56.9704 126.944 55.3002 126.297 53.7589 125.379C52.2433 124.457 50.8625 123.304 49.6167 121.918C48.3966 120.528 47.3661 119.003 46.5253 117.342L48.3638 116.46C49.8007 119.398 51.7439 121.531 54.1933 122.859C56.6468 124.214 59.4171 124.648 62.5043 124.163C64.408 123.864 66.1651 123.219 67.7756 122.228C69.4158 121.258 70.7969 120.066 71.919 118.651C73.037 117.21 73.8525 115.605 74.3656 113.838C74.8747 112.044 74.9776 110.183 74.6745 108.253C74.4683 106.941 74.0922 105.722 73.5461 104.595C73 103.468 72.3482 102.424 71.5908 101.462C70.8334 100.5 70.0129 99.6408 69.1294 98.8833C68.2676 98.0961 67.3963 97.4158 66.5154 96.8424C65.841 97.0802 65.1625 97.2922 64.4801 97.4786C63.7976 97.6649 63.1219 97.8106 62.453 97.9157C61.5269 98.0612 60.5649 98.1464 59.5671 98.1714C58.591 98.1666 57.682 98.0854 56.84 97.9277C56.0237 97.766 55.322 97.494 54.7347 97.1118C54.1731 96.7255 53.8398 96.1979 53.7347 95.529C53.7105 95.3747 53.7147 95.1499 53.7474 94.8548C53.7761 94.534 53.884 94.2139 54.071 93.8945C54.2838 93.5711 54.6185 93.2681 55.0749 92.9855C55.5273 92.6772 56.178 92.4563 57.027 92.3229C57.8245 92.1976 58.6361 92.1623 59.4619 92.2171C60.3135 92.2679 61.1365 92.389 61.9311 92.5805C62.7216 92.7462 63.4945 92.9675 64.2497 93.2442C65.0009 93.4953 65.6898 93.7693 66.3164 94.0662C67.1779 93.5091 68.0171 92.8105 68.8341 91.9704C69.6728 91.1005 70.3972 90.0904 71.0073 88.9401C71.6174 87.7898 72.0617 86.5073 72.3403 85.0928C72.6189 83.6782 72.6269 82.1349 72.3641 80.4627C71.9033 77.5299 70.6787 75.0203 68.6901 72.9339C66.7015 70.8475 64.0152 69.4374 60.6312 68.7038C59.4271 71.1073 58.324 73.4818 57.3217 75.8272C56.3195 78.1727 55.4072 80.504 54.5851 82.8212C53.7629 85.1383 53.005 87.4454 52.3115 89.7423C51.6436 92.0352 51.0185 94.3478 50.4359 96.68C49.0848 102.006 47.672 106.604 46.1974 110.474C44.7188 114.318 42.9977 117.54 41.034 120.142C39.0961 122.74 36.8444 124.768 34.2792 126.226C31.7436 127.705 28.7265 128.719 25.2278 129.269C22.5265 129.693 20.1276 129.609 18.0309 129.016C15.9383 128.448 14.1405 127.492 12.6374 126.146C11.1343 124.801 9.91434 123.16 8.97759 121.225C8.06253 119.26 7.4231 117.12 7.05931 114.804C6.6551 112.232 6.65039 109.517 7.04516 106.661C7.43589 103.779 8.22739 100.847 9.41967 97.8654C10.1779 95.9801 11.1704 93.9921 12.3972 91.9013C13.62 89.7848 15.0675 87.6726 16.7397 85.5645C18.4079 83.4308 20.3109 81.3656 22.4488 79.3689C24.6084 77.3425 26.9824 75.5065 29.5708 73.8608C32.1809 72.1854 35.0115 70.7389 38.0627 69.5214C41.1355 68.2741 44.4341 67.3736 47.9586 66.8198C50.1196 66.4803 52.1058 66.2868 53.9173 66.2395C55.7504 66.1623 57.4583 66.2103 59.0408 66.3835C59.5395 65.6988 60.0383 65.0141 60.537 64.3295C61.0614 63.6408 61.5988 62.95 62.149 62.2573L63.4802 63.4321ZM50.638 81.8597C51.6458 79.3815 52.7272 77.0368 53.8824 74.8255C55.0592 72.5844 56.3511 70.4044 57.7579 68.2853C56.744 68.2074 55.6738 68.191 54.5473 68.2362C53.4466 68.2773 52.2917 68.3929 51.0826 68.5829C47.198 69.1932 43.4497 70.3357 39.8377 72.0104C36.2474 73.6553 32.8911 75.6984 29.7686 78.1398C26.6719 80.5771 23.8762 83.3361 21.3814 86.4169C18.8866 89.4977 16.8142 92.7494 15.164 96.1721C13.5354 99.5649 12.3854 103.067 11.7139 106.679C11.0681 110.286 11.0221 113.852 11.5758 117.377C11.8507 119.126 12.3328 120.685 13.0222 122.053C13.7334 123.391 14.6457 124.499 15.7592 125.379C16.8687 126.233 18.1626 126.833 19.6407 127.181C21.1405 127.499 22.8037 127.515 24.6302 127.228C27.6916 126.747 30.2782 125.76 32.39 124.269C34.4977 122.751 36.2835 120.862 37.7474 118.603C39.2369 116.339 40.4959 113.782 41.5243 110.931C42.5486 108.055 43.5081 105.018 44.4027 101.819C45.323 98.6169 46.2549 95.3203 47.1984 91.9296C48.1419 88.539 49.2884 85.1823 50.638 81.8597ZM63.8136 95.2503C63.3833 95.028 62.8798 94.8435 62.3031 94.6968C61.7482 94.5204 61.1756 94.3995 60.5854 94.334C59.9911 94.2429 59.4029 94.1903 58.8208 94.1763C58.2386 94.1623 57.7418 94.1877 57.3301 94.2524C56.6098 94.3655 56.1609 94.5283 55.9834 94.7408C55.8275 94.9234 55.7597 95.0791 55.7799 95.2077C55.8163 95.4392 56.0159 95.6188 56.3786 95.7463C56.7671 95.8698 57.2307 95.9683 57.7695 96.0418C58.3299 96.0855 58.9378 96.0955 59.5931 96.0716C60.2483 96.0477 60.8847 95.9873 61.5021 95.8903C61.7851 95.8458 62.1047 95.7824 62.4608 95.7001C62.8169 95.6178 63.2679 95.4679 63.8136 95.2503ZM96.5864 106.076C96.5835 106.393 96.5934 106.707 96.6162 107.02C96.6389 107.333 96.6746 107.644 96.7231 107.952C96.8686 108.879 97.1367 109.746 97.5273 110.554C97.9397 111.333 98.4536 112.004 99.0692 112.566C99.7065 113.099 100.439 113.484 101.268 113.723C102.122 113.958 103.05 113.997 104.054 113.839C107.424 113.31 110.498 111.653 113.277 108.871C116.056 106.088 118.612 101.969 120.945 96.5152L122.438 97.4667C121.185 100.563 119.837 103.227 118.395 105.457C116.949 107.661 115.446 109.505 113.887 110.989C112.353 112.469 110.793 113.611 109.205 114.414C107.618 115.217 106.065 115.737 104.548 115.976C103.441 116.15 102.247 116.179 100.963 116.064C99.6799 115.95 98.4543 115.615 97.2863 115.061C96.1441 114.502 95.1436 113.671 94.2847 112.567C93.4001 111.467 92.8164 110.016 92.5334 108.215C92.2303 106.286 92.2737 104.381 92.6637 102.501C93.0239 100.599 93.6101 98.7934 94.4223 97.0841C95.2346 95.3748 96.2234 93.7827 97.3888 92.3079C98.5502 90.8074 99.7548 89.4978 101.002 88.3791C102.276 87.2564 103.543 86.3455 104.804 85.6465C106.061 84.9218 107.204 84.4786 108.233 84.3169C108.902 84.2118 109.6 84.2076 110.327 84.3043C111.054 84.401 111.722 84.6255 112.331 84.978C112.965 85.3264 113.506 85.8345 113.954 86.5023C114.427 87.166 114.743 87.9996 114.901 89.0029C115.115 90.3664 114.995 91.7032 114.542 93.0134C114.111 94.2938 113.448 95.5314 112.555 96.7261C111.658 97.8952 110.58 99.0005 109.32 100.042C108.056 101.058 106.709 101.968 105.281 102.772C103.852 103.577 102.392 104.267 100.901 104.844C99.4097 105.421 97.9716 105.832 96.5864 106.076ZM96.6344 104.368C98.3298 103.917 99.8939 103.302 101.327 102.524C102.76 101.745 104.046 100.871 105.185 99.9007C106.321 98.9052 107.304 97.8675 108.136 96.7878C108.994 95.704 109.683 94.6336 110.202 93.5767C110.721 92.5197 111.092 91.5256 111.315 90.5943C111.538 89.6631 111.595 88.8501 111.485 88.1555C111.376 87.4609 111.096 86.9381 110.646 86.5871C110.221 86.2321 109.751 86.095 109.237 86.1759C108.105 86.3537 106.896 86.9654 105.611 88.011C104.321 89.0308 103.082 90.3722 101.893 92.0351C100.701 93.6724 99.6256 95.5548 98.6682 97.6823C97.7365 99.8058 97.0586 102.034 96.6344 104.368ZM177.908 93.4963C177.079 94.7601 176.224 95.9488 175.345 97.0624C174.461 98.1502 173.573 99.1202 172.678 99.9725C171.784 100.825 170.881 101.533 169.968 102.099C169.077 102.634 168.181 102.973 167.28 103.114C166.277 103.272 165.335 103.235 164.456 103.004C163.597 102.744 162.818 102.313 162.117 101.711C161.442 101.105 160.875 100.351 160.417 99.4474C159.959 98.544 159.639 97.5135 159.457 96.3558C159.214 94.8123 159.283 93.1539 159.664 91.3806C160.044 89.6074 160.613 87.8573 161.369 86.1304C162.148 84.3737 163.043 82.6908 164.056 81.0819C165.094 79.4689 166.124 78.0549 167.146 76.8399L168.987 77.7369C168.747 78.2227 168.418 78.894 167.999 79.7507C167.58 80.6073 167.142 81.5987 166.687 82.7247C166.227 83.8251 165.768 85.0174 165.311 86.3019C164.88 87.5823 164.504 88.8804 164.183 90.196C163.863 91.5117 163.632 92.8133 163.492 94.1007C163.377 95.384 163.404 96.566 163.574 97.6465C163.655 98.161 163.773 98.6566 163.926 99.1332C164.102 99.5801 164.321 99.9675 164.584 100.295C164.872 100.619 165.212 100.856 165.605 101.005C165.997 101.154 166.476 101.184 167.042 101.095C167.943 100.954 168.878 100.53 169.848 99.8241C170.839 99.0884 171.826 98.1556 172.809 97.0259C173.813 95.8664 174.805 94.5506 175.787 93.0783C176.794 91.6021 177.761 90.0398 178.688 88.3915C179.615 86.7432 180.498 85.0624 181.336 83.3491C182.17 81.61 182.931 79.9088 183.618 78.2455C184.227 76.7526 184.836 75.2598 185.445 73.767C186.05 72.2484 186.661 70.7685 187.278 69.3271L189.238 69.9683C189.22 70.0238 189.052 70.551 188.735 71.5499C188.439 72.519 188.041 73.8468 187.542 75.5333C187.038 77.1941 186.447 79.1323 185.767 81.3481C185.108 83.534 184.408 85.8716 183.666 88.3607C182.919 90.8242 182.157 93.356 181.379 95.9561C180.627 98.5522 179.891 101.08 179.17 103.539C182.482 100.963 185.388 98.0677 187.889 94.8543C190.415 91.6367 192.496 88.3573 194.133 85.0159L195.73 85.872C194.03 89.6452 191.748 93.2461 188.886 96.6746C186.02 100.077 182.455 103.471 178.189 106.857C176.773 111.772 175.333 116.282 173.869 120.387C172.431 124.488 170.895 128.05 169.262 131.075C167.654 134.096 165.949 136.499 164.147 138.284C162.323 140.1 160.356 141.173 158.247 141.505C156.858 141.723 155.627 141.442 154.556 140.661C153.484 139.881 152.813 138.629 152.542 136.905C152.316 135.464 152.405 133.935 152.809 132.316C153.214 130.697 153.861 129.027 154.751 127.305C155.644 125.609 156.756 123.879 158.087 122.115C159.396 120.38 160.868 118.673 162.502 116.993C164.11 115.317 165.818 113.691 167.627 112.115C169.461 110.535 171.337 109.054 173.255 107.672C173.618 106.455 174.009 105.167 174.428 103.81C174.852 102.478 175.268 101.187 175.678 99.9361C176.084 98.6598 176.476 97.4646 176.854 96.3507C177.255 95.207 177.606 94.2555 177.908 93.4963ZM172.068 111.694C169.397 113.985 166.949 116.36 164.726 118.818C162.532 121.298 160.667 123.687 159.13 125.984C157.571 128.312 156.404 130.446 155.628 132.387C154.852 134.328 154.561 135.915 154.755 137.15C154.885 137.974 155.232 138.591 155.798 139.003C156.338 139.419 156.981 139.569 157.727 139.451C158.73 139.294 159.717 138.783 160.689 137.918C161.638 137.084 162.56 135.99 163.455 134.637C164.324 133.288 165.158 131.72 165.958 129.933C166.763 128.173 167.521 126.287 168.233 124.277C168.975 122.289 169.664 120.217 170.301 118.061C170.942 115.93 171.531 113.808 172.068 111.694ZM224.451 84.246C224.558 84.2555 224.663 84.2522 224.766 84.236C224.869 84.2199 224.984 84.2017 225.113 84.1815C225.833 84.0683 226.479 83.9009 227.051 83.6793C227.618 83.432 228.122 83.1156 228.562 82.7301C229.028 82.3405 229.454 81.865 229.841 81.3034C230.223 80.7161 230.576 80.028 230.9 79.2389L232.459 80.1011C231.499 82.0445 230.418 83.4666 229.215 84.3673C228.012 85.2681 226.677 85.8337 225.211 86.0641C224.671 86.149 224.187 86.1723 223.759 86.1341C222.944 88.1601 222.009 89.9282 220.955 91.4383C219.896 92.9227 218.775 94.1796 217.593 95.2089C216.41 96.2383 215.204 97.0341 213.974 97.5964C212.749 98.1844 211.583 98.5653 210.476 98.7391C209.344 98.917 208.257 98.8769 207.215 98.6189C206.203 98.3825 205.29 97.9459 204.479 97.309C203.667 96.6721 202.987 95.8694 202.439 94.901C201.892 93.9326 201.517 92.8052 201.315 91.5189C201.113 90.2326 201.113 88.8883 201.314 87.4858C201.515 86.0834 201.86 84.6716 202.349 83.2504C202.863 81.8252 203.501 80.4333 204.263 79.0746C205.021 77.6902 205.87 76.3837 206.81 75.1551C207.751 73.9265 208.746 72.7948 209.796 71.7599C210.846 70.725 211.92 69.8445 213.019 69.1183L214.508 70.545C213.299 71.7368 212.103 73.19 210.923 74.9044C209.768 76.6148 208.751 78.4485 207.873 80.4054C207.02 82.3584 206.372 84.3582 205.929 86.4049C205.507 88.4218 205.438 90.3307 205.721 92.1315C205.976 93.7522 206.534 94.9562 207.396 95.7434C208.254 96.5049 209.416 96.7705 210.882 96.5401C212.014 96.3623 213.097 95.9549 214.13 95.318C215.164 94.6811 216.145 93.8811 217.075 92.9178C218.004 91.9546 218.873 90.8559 219.681 89.6219C220.484 88.362 221.227 87.046 221.907 85.6737C221.092 85.3536 220.346 84.8778 219.666 84.2464C218.983 83.5893 218.376 82.828 217.844 81.9625C217.309 81.0712 216.853 80.1015 216.478 79.0534C216.128 78.0012 215.864 76.9091 215.686 75.7772C215.509 74.6452 215.482 73.5553 215.608 72.5076C215.733 71.4598 215.981 70.5245 216.353 69.7016C216.746 68.849 217.243 68.1515 217.843 67.609C218.443 67.0666 219.142 66.7327 219.94 66.6074C220.66 66.4942 221.333 66.5861 221.96 66.8831C222.583 67.1543 223.139 67.5941 223.63 68.2023C224.117 68.7848 224.534 69.5101 224.882 70.3782C225.229 71.2463 225.483 72.1948 225.645 73.2239C225.766 73.9957 225.835 74.8547 225.852 75.8011C225.869 76.7474 225.824 77.7167 225.716 78.709C225.63 79.6715 225.48 80.6442 225.265 81.6269C225.072 82.5799 224.801 83.4529 224.451 84.246ZM217.693 75.4619C217.81 76.2079 218.002 77.0082 218.268 77.8627C218.534 78.7171 218.873 79.5338 219.286 80.3125C219.698 81.0913 220.179 81.8065 220.73 82.4581C221.276 83.084 221.903 83.5522 222.611 83.8628C222.933 82.8896 223.175 81.9157 223.338 80.9411C223.523 79.9367 223.65 78.9809 223.718 78.0739C223.812 77.1629 223.839 76.3282 223.799 75.5701C223.781 74.7821 223.727 74.1051 223.638 73.5392C223.517 72.7674 223.342 72.07 223.112 71.4471C222.882 70.8241 222.615 70.2993 222.311 69.8726C222.029 69.4162 221.7 69.0856 221.325 68.8809C220.972 68.6464 220.602 68.5595 220.216 68.6201C219.702 68.7009 219.254 68.9558 218.873 69.3847C218.489 69.7878 218.188 70.3095 217.973 70.9497C217.753 71.5642 217.614 72.2715 217.555 73.0716C217.518 73.8419 217.564 74.6386 217.693 75.4619ZM257.764 81.147C256.799 82.7222 255.831 84.1924 254.859 85.5577C253.883 86.8972 252.883 88.0824 251.859 89.1133C250.856 90.1144 249.825 90.9354 248.766 91.5763C247.711 92.243 246.605 92.6672 245.447 92.8491C244.469 93.0027 243.553 92.9621 242.699 92.7272C241.875 92.514 241.131 92.1432 240.468 91.6147C239.776 91.0645 239.204 90.3635 238.754 89.5116C238.3 88.6339 237.984 87.6292 237.806 86.4972C237.527 84.7221 237.639 82.8329 238.141 80.8296C238.618 78.8303 239.308 76.8502 240.213 74.8892C241.143 72.9241 242.203 71.0309 243.393 69.2095C244.609 67.3841 245.776 65.7509 246.894 64.3099L248.735 65.2068C248.023 66.7158 247.224 68.4231 246.337 70.3286C245.476 72.2301 244.676 74.1879 243.938 76.2018C243.222 78.186 242.662 80.1588 242.259 82.1202C241.851 84.0559 241.77 85.8084 242.017 87.3777C242.183 88.4324 242.517 89.3025 243.02 89.988C243.549 90.6694 244.379 90.9211 245.511 90.7433C246.746 90.5492 248.02 89.8482 249.333 88.6403C250.671 87.4282 251.989 85.9163 253.286 84.1045C254.609 82.2886 255.888 80.2818 257.125 78.0841C258.383 75.8567 259.549 73.6305 260.623 71.4056C261.697 69.1807 262.656 67.066 263.501 65.0616C264.372 63.0532 265.066 61.3492 265.584 59.9497L268.62 60.8963C267.588 64.0635 266.578 67.0297 265.589 69.7949C264.622 72.5303 263.758 74.999 262.996 77.2011C262.257 79.3735 261.683 81.2563 261.274 82.8494C260.891 84.4385 260.768 85.6704 260.906 86.5451C260.962 86.9053 261.086 87.189 261.277 87.3963C261.467 87.6036 261.73 87.6809 262.065 87.6284C263.02 87.5046 263.998 86.9292 264.996 85.9024C266.02 84.8716 267.01 83.6221 267.966 82.1539C268.947 80.6816 269.872 79.0997 270.74 77.408C271.629 75.6866 272.419 74.0863 273.109 72.6071L274.668 73.4693C274.554 73.7508 274.315 74.3287 273.952 75.203C273.588 76.0773 273.127 77.0856 272.569 78.2278C272.01 79.37 271.357 80.5799 270.608 81.8573C269.86 83.1348 269.046 84.3303 268.167 85.4438C267.283 86.5317 266.337 87.4712 265.327 88.2624C264.314 89.0279 263.267 89.4956 262.187 89.6653C261.518 89.7704 260.895 89.7497 260.319 89.603C259.768 89.4523 259.282 89.2123 258.861 88.883C258.44 88.5537 258.087 88.148 257.8 87.6658C257.513 87.1836 257.325 86.6595 257.237 86.0936C257.131 85.4247 257.119 84.6753 257.2 83.8455C257.306 83.0116 257.494 82.1121 257.764 81.147ZM305.532 68.62C305.235 69.2466 304.893 70.0911 304.506 71.1536C304.141 72.1863 303.7 73.3232 303.184 74.5643C302.663 75.7797 302.069 77.0329 301.402 78.3239C300.76 79.6109 300.011 80.7963 299.153 81.8801C298.321 82.9599 297.373 83.8865 296.308 84.6601C295.243 85.4337 294.055 85.9236 292.743 86.1297C292.022 86.2429 291.322 86.2343 290.643 86.1038C289.967 85.999 289.349 85.7535 288.787 85.3672C288.226 84.981 287.751 84.4756 287.363 83.8512C286.971 83.2011 286.702 82.4129 286.556 81.4868C286.358 80.2262 286.397 78.8758 286.671 77.4355C286.968 75.9655 287.349 74.5347 287.816 73.1433C288.283 71.7519 288.768 70.4763 289.271 69.3164C289.77 68.1309 290.123 67.1922 290.331 66.5006C290.538 65.8089 290.606 65.2316 290.533 64.7685C290.481 64.4341 290.318 64.1564 290.046 63.9355C289.8 63.7106 289.492 63.5086 289.121 63.3296C288.772 63.1209 288.397 62.9162 287.996 62.7155C287.617 62.4851 287.282 62.1951 286.99 61.8456C286.508 62.9757 286.016 64.1206 285.513 65.2805C285.063 66.2739 284.579 67.3911 284.062 68.6322C283.541 69.8476 283.044 71.046 282.571 72.2276L281.012 71.3653L287.239 57.1405L288.449 57.5435C288.422 57.7059 288.37 57.9645 288.294 58.3191C288.244 58.6697 288.249 59.038 288.309 59.4239C288.354 59.7069 288.437 59.9838 288.559 60.2546C288.702 60.4957 288.933 60.7098 289.253 60.8969C290.427 61.6613 291.351 62.2543 292.023 62.6759C292.692 63.0717 293.179 63.4038 293.485 63.6721C293.812 63.9106 294.018 64.1287 294.102 64.3264C294.207 64.4944 294.284 64.7327 294.333 65.0415C294.381 65.3502 294.388 65.7313 294.354 66.1848C294.32 66.6383 294.223 67.194 294.062 67.8518C293.928 68.5056 293.709 69.2914 293.405 70.209C293.122 71.097 292.747 72.1445 292.277 73.3518C291.996 74.0813 291.718 74.8237 291.441 75.5789C291.186 76.3044 290.958 77.0387 290.759 77.7818C290.585 78.5209 290.463 79.2518 290.392 79.9747C290.321 80.6976 290.336 81.3807 290.437 82.0238C290.514 82.5126 290.641 82.9013 290.818 83.1898C291.017 83.4485 291.244 83.6368 291.5 83.7548C291.755 83.8728 292.016 83.9373 292.281 83.9483C292.572 83.9553 292.847 83.9386 293.104 83.8982C293.953 83.7648 294.751 83.389 295.497 82.7709C296.265 82.123 296.985 81.3376 297.657 80.4148C298.355 79.488 298.999 78.4643 299.587 77.3437C300.197 76.1934 300.767 75.0363 301.295 73.8724C301.824 72.7085 302.31 71.6041 302.752 70.5593C303.19 69.4887 303.584 68.5569 303.934 67.7638L305.532 68.62ZM345.149 73.2297C346.073 73.7435 347.217 73.8933 348.581 73.6791C350.047 73.4487 351.387 73.0009 352.601 72.3357C353.84 71.6665 354.967 70.8699 355.982 69.946C356.992 68.9964 357.901 67.9837 358.707 66.908C359.513 65.8323 360.217 64.7728 360.817 63.7295C361.44 62.6563 361.969 61.6637 362.406 60.7515C362.864 59.8096 363.229 59.0274 363.5 58.4048L365.661 58.0653C365.398 58.7393 365.022 59.6156 364.532 60.6942C364.064 61.7431 363.478 62.8765 362.773 64.0944C362.094 65.3083 361.301 66.5533 360.394 67.8293C359.483 69.0795 358.441 70.2451 357.266 71.3259C356.117 72.4027 354.854 73.3393 353.477 74.1356C352.095 74.9063 350.581 75.421 348.935 75.6796C348.214 75.7928 347.495 75.8268 346.776 75.7816C346.079 75.7066 345.38 75.5395 344.68 75.2804C344.159 77.4976 343.657 79.6722 343.175 81.8041C342.667 83.9401 342.194 85.9651 341.757 87.8791C341.294 89.7972 340.873 91.5636 340.494 93.1784C340.115 94.7933 339.781 96.1902 339.491 97.3692C339.206 98.5739 338.985 99.518 338.829 100.202C338.677 100.911 338.59 101.28 338.568 101.31L334.201 99.9402C335.028 96.6469 335.767 93.6311 336.418 90.8928C337.042 88.1585 337.629 85.6015 338.178 83.2219C338.701 80.8463 339.208 78.6183 339.698 76.5378C340.159 74.4356 340.642 72.3957 341.149 70.4181C340.644 69.8911 340.257 69.3588 339.988 68.8211C339.693 68.2875 339.492 67.8446 339.384 67.4925C339.24 66.9089 339.33 66.3938 339.655 65.9473C339.951 65.4791 340.394 65.1985 340.986 65.1055C341.475 65.0287 341.951 65.1252 342.415 65.395C342.896 63.4215 343.323 61.6936 343.697 60.2114C344.092 58.6995 344.42 57.4352 344.682 56.4187C344.972 55.2397 345.232 54.2103 345.463 53.3305C346.872 47.705 348.228 42.8261 349.529 38.6938C350.852 34.5317 352.114 30.9856 353.314 28.0555C354.511 25.0996 355.648 22.6933 356.727 20.8367C357.802 18.9543 358.807 17.4651 359.742 16.3692C360.703 15.2693 361.597 14.4962 362.423 14.0501C363.245 13.5782 364.003 13.2877 364.698 13.1786C365.83 13.0007 366.822 13.1084 367.675 13.5017C368.549 13.8652 369.133 14.6434 369.426 15.8364C369.714 17.0036 369.73 18.5301 369.473 20.4158C369.241 22.2974 368.822 24.3272 368.215 26.5051C367.63 28.6532 366.895 30.8513 366.009 33.0993C365.123 35.3474 364.185 37.4323 363.196 39.354C361.312 42.9714 359.561 46.0013 357.941 48.4438C356.347 50.8822 354.92 52.8726 353.66 54.415C352.4 55.9575 351.331 57.127 350.455 57.9238C349.574 58.6948 348.921 59.2325 348.494 59.5368L345.149 73.2297ZM367.124 16.7911C367.029 16.3578 366.868 16.0009 366.639 15.7205C366.432 15.4103 366.072 15.2957 365.557 15.3765C365.249 15.425 364.862 15.5648 364.397 15.796C363.929 16.0014 363.396 16.3882 362.8 16.9564C362.23 17.5205 361.604 18.3175 360.922 19.3472C360.24 20.377 359.504 21.7316 358.714 23.4111C357.949 25.0866 357.138 27.1384 356.28 29.5666C355.448 31.9907 354.599 34.892 353.733 38.2705C353.148 40.4186 352.49 43.0263 351.759 46.0936C351.025 49.1351 350.213 52.4392 349.323 56.0059C350.399 54.967 351.494 53.7141 352.608 52.2474C353.743 50.7509 354.861 49.1387 355.96 47.4106C357.081 45.6528 358.162 43.8091 359.203 41.8793C360.244 39.9495 361.217 38.0041 362.122 36.043C363.026 34.082 363.83 32.15 364.533 30.247C365.261 28.34 365.849 26.5473 366.297 24.8689C366.767 23.1607 367.079 21.6223 367.233 20.2536C367.383 18.8593 367.347 17.7051 367.124 16.7911ZM390.325 60.319C389.36 61.8941 388.392 63.3643 387.42 64.7296C386.444 66.0692 385.444 67.2544 384.42 68.2852C383.417 69.2863 382.387 70.1073 381.327 70.7482C380.272 71.4149 379.166 71.8392 378.008 72.0211C377.031 72.1747 376.115 72.134 375.261 71.8992C374.436 71.686 373.693 71.3152 373.03 70.7867C372.337 70.2365 371.765 69.5354 371.315 68.6835C370.861 67.8059 370.545 66.8011 370.367 65.6692C370.088 63.8941 370.2 62.0049 370.702 60.0015C371.179 58.0023 371.87 56.0221 372.774 54.0611C373.704 52.096 374.765 50.2028 375.955 48.3814C377.17 46.556 378.337 44.9228 379.455 43.4818L381.296 44.3788C380.585 45.8878 379.785 47.595 378.898 49.5006C378.037 51.4021 377.238 53.3598 376.5 55.3738C375.783 57.3579 375.223 59.3307 374.82 61.2922C374.412 63.2278 374.332 64.9803 374.578 66.5496C374.744 67.6044 375.078 68.4745 375.581 69.1599C376.11 69.8413 376.941 70.0931 378.073 69.9152C379.308 69.7212 380.581 69.0202 381.894 67.8122C383.233 66.6002 384.55 65.0882 385.847 63.2764C387.17 61.4606 388.45 59.4538 389.686 57.2561C390.944 55.0286 392.11 52.8024 393.184 50.5775C394.258 48.3526 395.217 46.238 396.062 44.2336C396.933 42.2251 397.627 40.5211 398.146 39.1217L401.181 40.0683C400.15 43.2355 399.139 46.2017 398.15 48.9668C397.183 51.7022 396.319 54.171 395.558 56.3731C394.818 58.5454 394.244 60.4282 393.835 62.0214C393.452 63.6105 393.33 64.8424 393.467 65.7171C393.524 66.0772 393.647 66.361 393.838 66.5682C394.029 66.7755 394.291 66.8529 394.626 66.8003C395.582 66.6765 396.559 66.1012 397.557 65.0744C398.582 64.0435 399.572 62.794 400.527 61.3258C401.508 59.8536 402.433 58.2716 403.301 56.58C404.19 54.8586 404.98 53.2582 405.67 51.779L407.229 52.6412C407.115 52.9227 406.877 53.5007 406.513 54.375C406.15 55.2493 405.688 56.2575 405.13 57.3998C404.571 58.542 403.918 59.7518 403.169 61.0293C402.421 62.3067 401.607 63.5022 400.728 64.6158C399.844 65.7036 398.898 66.6431 397.889 67.4344C396.875 68.1999 395.829 68.6675 394.748 68.8373C394.079 68.9424 393.456 68.9216 392.88 68.775C392.329 68.6243 391.843 68.3843 391.422 68.055C391.001 67.7257 390.648 67.3199 390.361 66.8377C390.074 66.3555 389.887 65.8315 389.798 65.2655C389.693 64.5966 389.68 63.8473 389.761 63.0174C389.867 62.1835 390.055 61.284 390.325 60.319ZM444.91 39.8406C445.084 40.9468 445.069 42.109 444.865 43.3273C444.657 44.5199 444.348 45.7415 443.938 46.9922C443.524 48.2171 443.07 49.4352 442.575 50.6465C442.079 51.8578 441.617 53.0245 441.187 54.1465C440.757 55.2685 440.424 56.3358 440.187 57.3483C439.947 58.335 439.887 59.2143 440.009 59.9861C440.102 60.5778 440.293 60.9563 440.583 61.1217C440.872 61.2871 441.171 61.3456 441.48 61.297C442.458 61.1434 443.476 60.4957 444.536 59.3539C445.591 58.1863 446.621 56.7723 447.626 55.1119C448.656 53.4475 449.653 51.6564 450.617 49.7388C451.581 47.8211 452.443 46.0117 453.204 44.3104L454.763 45.1727C454.606 45.5137 454.33 46.1898 453.935 47.2008C453.536 48.1861 453.031 49.3331 452.42 50.6418C451.804 51.9248 451.096 53.2882 450.294 54.7322C449.515 56.1463 448.644 57.4826 447.682 58.7409C446.716 59.9736 445.683 61.0322 444.583 61.9167C443.508 62.7973 442.367 63.3325 441.157 63.5225C440.463 63.6317 439.814 63.6149 439.212 63.4723C438.61 63.3297 438.07 63.0849 437.594 62.738C437.143 62.387 436.76 61.9596 436.444 61.4557C436.123 60.9261 435.914 60.3526 435.817 59.7352C435.66 58.7319 435.709 57.617 435.964 56.3906C436.241 55.1345 436.617 53.8364 437.092 52.4965C437.567 51.1565 438.106 49.8065 438.71 48.4463C439.309 47.0604 439.854 45.749 440.345 44.5119C440.836 43.2749 441.226 42.1461 441.514 41.1255C441.823 40.0752 441.923 39.2027 441.814 38.5081C441.689 37.7106 441.365 37.076 440.843 36.6045C440.346 36.1289 439.712 35.9518 438.94 36.073C438.117 36.2024 437.22 36.6993 436.248 37.5636C435.273 38.4023 434.22 39.5827 433.088 41.1049C431.956 42.6271 430.745 44.4783 429.453 46.6583C428.183 48.8086 426.813 51.2513 425.345 53.9863C424.513 55.5669 423.698 57.0921 422.901 58.5618C422.552 59.1965 422.206 59.844 421.861 60.5044C421.517 61.1649 421.173 61.8253 420.828 62.4857C420.48 63.1204 420.153 63.7253 419.848 64.3004C419.547 64.9013 419.273 65.419 419.024 65.8534L415.41 64.9977L418.949 58.0755C419.455 57.0997 419.963 56.0577 420.475 54.9493C420.986 53.8408 421.48 52.7087 421.958 51.5529C422.457 50.3673 422.917 49.1878 423.339 48.0143C423.761 46.8409 424.148 45.6992 424.501 44.5893C425.005 42.9285 425.319 41.5742 425.445 40.5265C425.566 39.453 425.578 38.6075 425.481 37.9901C425.372 37.2955 425.172 36.8655 424.883 36.7001C424.589 36.509 424.211 36.4498 423.748 36.5226C423.259 36.5993 422.733 36.9455 422.171 37.5611C421.631 38.1469 421.088 38.8911 420.545 39.7937C419.997 40.6706 419.455 41.6653 418.918 42.7777C418.403 43.8604 417.913 44.939 417.449 46.0136C416.986 47.0882 416.552 48.1053 416.149 49.0649C415.747 50.0245 415.408 50.8027 415.132 51.3995L413.573 50.5373C414.562 48.2731 415.45 46.2091 416.238 44.3455C417.048 42.4521 417.845 40.8111 418.628 39.4227C419.437 38.0302 420.253 36.9267 421.074 36.1123C421.916 35.2682 422.865 34.7632 423.92 34.5975C424.486 34.5086 425.044 34.5395 425.595 34.6902C426.172 34.8368 426.689 35.1114 427.148 35.5138C427.628 35.8865 428.035 36.3762 428.367 36.983C428.7 37.5897 428.933 38.3176 429.066 39.1666C429.172 39.8354 429.203 40.5422 429.162 41.2868C430.12 40.0027 431.032 38.9237 431.896 38.0497C432.761 37.1758 433.572 36.4684 434.331 35.9274C435.085 35.3607 435.796 34.9328 436.462 34.6435C437.128 34.3543 437.744 34.1653 438.31 34.0763C438.799 33.9995 439.379 34.0006 440.051 34.0797C440.722 34.1587 441.379 34.3982 442.022 34.798C442.665 35.1979 443.248 35.8049 443.771 36.6189C444.316 37.4032 444.696 38.4771 444.91 39.8406Z" fill="white"/>
</svg>
